<?xml version="1.0" encoding="UTF-8" standalone="no"?>
<!DOCTYPE svg PUBLIC "-//W3C//DTD SVG 1.1//EN" "http://www.w3.org/Graphics/SVG/1.1/DTD/svg11.dtd">
<svg xmlns="http://www.w3.org/2000/svg" xmlns:xlink="http://www.w3.org/1999/xlink" version="1.1" width="15.369pt" height="57.888pt" viewBox="0 0 15.369 57.888">
<path transform="matrix(1,0,0,-1,.598,57.29)" stroke-width="1.19553" stroke-linecap="butt" stroke-miterlimit="10" stroke-linejoin="miter" fill="none" stroke="#000000" d="M 0 0 L 0 55.7372 "/>
<path transform="matrix(0,-1,-1,-0,.598,1.5527992)" stroke-width="1" stroke-linecap="round" stroke-linejoin="round" fill="none" stroke="#000000" d="M -1.91284 2.55046 C -1.75343 1.59402 0 .15938 .4782 0 C 0 -.15938 -1.75343 -1.59402 -1.91284 -2.55046 "/>
<path transform="matrix(1,0,0,-1,.598,57.29)" stroke-width="1.19553" stroke-linecap="butt" stroke-miterlimit="10" stroke-linejoin="miter" fill="none" stroke="#000000" d="M 14.17339 14.17339 L 14.17339 41.56378 "/>
<path transform="matrix(0,-1,-1,-0,14.77139,15.726219)" stroke-width="1" stroke-linecap="round" stroke-linejoin="round" fill="none" stroke="#000000" d="M -1.91284 2.55046 C -1.75343 1.59402 0 .15938 .4782 0 C 0 -.15938 -1.75343 -1.59402 -1.91284 -2.55046 "/>
</svg>
