<?xml version="1.0" encoding="UTF-8" standalone="no"?>
<!DOCTYPE svg PUBLIC "-//W3C//DTD SVG 1.1//EN" "http://www.w3.org/Graphics/SVG/1.1/DTD/svg11.dtd">
<svg xmlns="http://www.w3.org/2000/svg" xmlns:xlink="http://www.w3.org/1999/xlink" version="1.1" width="142.131pt" height="142.131pt" viewBox="0 0 142.131 142.131">
<path transform="matrix(1,0,0,-1,71.065,71.065998)" d="M 31.18166 0 C 31.18166 1.56564 29.91246 2.83484 28.3468 2.83484 C 26.78114 2.83484 25.51195 1.56564 25.51195 0 C 25.51195 -1.56564 26.78114 -2.83484 28.3468 -2.83484 C 29.91246 -2.83484 31.18166 -1.56564 31.18166 0 Z M 28.3468 0 "/>
<path transform="matrix(1,0,0,-1,71.065,71.065998)" stroke-width="1" stroke-linecap="butt" stroke-miterlimit="10" stroke-linejoin="miter" fill="none" stroke="#000000" d="M 31.18166 0 C 31.18166 1.56564 29.91246 2.83484 28.3468 2.83484 C 26.78114 2.83484 25.51195 1.56564 25.51195 0 C 25.51195 -1.56564 26.78114 -2.83484 28.3468 -2.83484 C 29.91246 -2.83484 31.18166 -1.56564 31.18166 0 Z M 28.3468 0 "/>
<path transform="matrix(1,0,0,-1,71.065,71.065998)" stroke-width="1" stroke-linecap="butt" stroke-miterlimit="10" stroke-linejoin="miter" fill="none" stroke="#000000" d="M 28.3468 0 L 21.2601 -56.69362 L 14.17339 -49.6069 L 7.08669 -56.69362 L 0 -49.6069 L -7.08669 -56.69362 "/>
<path transform="matrix(1,0,0,-1,71.065,71.065998)" stroke-width="1" stroke-linecap="butt" stroke-miterlimit="10" stroke-linejoin="miter" fill="none" stroke="#000000" d="M -7.08669 -56.69362 C -38.3981 -56.69362 -63.7803 -31.31142 -63.7803 0 "/>
<path transform="matrix(1,0,0,-1,71.065,71.065998)" stroke-width="1" stroke-linecap="butt" stroke-miterlimit="10" stroke-linejoin="miter" fill="none" stroke="#000000" d="M -63.7803 0 C -32.46887 0 -7.08669 25.38219 -7.08669 56.69362 "/>
<path transform="matrix(1,0,0,-1,71.065,71.065998)" stroke-width="1" stroke-linecap="butt" stroke-miterlimit="10" stroke-linejoin="miter" fill="none" stroke="#000000" d="M -7.08669 56.69362 L 0 28.3468 "/>
<path transform="matrix(1,0,0,-1,71.065,71.065998)" d="M 2.83484 28.3468 C 2.83484 29.91246 1.56564 31.18166 0 31.18166 C -1.56564 31.18166 -2.83484 29.91246 -2.83484 28.3468 C -2.83484 26.78114 -1.56564 25.51195 0 25.51195 C 1.56564 25.51195 2.83484 26.78114 2.83484 28.3468 Z M 0 28.3468 "/>
<path transform="matrix(1,0,0,-1,71.065,71.065998)" stroke-width="1" stroke-linecap="butt" stroke-miterlimit="10" stroke-linejoin="miter" fill="none" stroke="#000000" d="M 2.83484 28.3468 C 2.83484 29.91246 1.56564 31.18166 0 31.18166 C -1.56564 31.18166 -2.83484 29.91246 -2.83484 28.3468 C -2.83484 26.78114 -1.56564 25.51195 0 25.51195 C 1.56564 25.51195 2.83484 26.78114 2.83484 28.3468 Z M 0 28.3468 "/>
<path transform="matrix(1,0,0,-1,71.065,71.065998)" stroke-width="1" stroke-linecap="butt" stroke-miterlimit="10" stroke-linejoin="miter" fill="none" stroke="#000000" d="M -70.40874 0 L 70.40874 0 "/>
<path transform="matrix(-1,0,0,1,.65626528,71.065998)" stroke-width="1" stroke-linecap="round" stroke-linejoin="round" fill="none" stroke="#000000" d="M -1.19551 1.59401 C -1.09587 .99626 0 .09961 .29886 0 C 0 -.09961 -1.09587 -.99626 -1.19551 -1.59401 "/>
<path transform="matrix(1,0,0,-1,141.47374,71.065998)" stroke-width="1" stroke-linecap="round" stroke-linejoin="round" fill="none" stroke="#000000" d="M -1.19551 1.59401 C -1.09587 .99626 0 .09961 .29886 0 C 0 -.09961 -1.09587 -.99626 -1.19551 -1.59401 "/>
<path transform="matrix(1,0,0,-1,71.065,71.065998)" stroke-width="1" stroke-linecap="butt" stroke-miterlimit="10" stroke-linejoin="miter" fill="none" stroke="#000000" d="M 0 -70.40874 L 0 70.40874 "/>
<path transform="matrix(0,1,1,0,71.065,141.47473)" stroke-width="1" stroke-linecap="round" stroke-linejoin="round" fill="none" stroke="#000000" d="M -1.19551 1.59401 C -1.09587 .99626 0 .09961 .29886 0 C 0 -.09961 -1.09587 -.99626 -1.19551 -1.59401 "/>
<path transform="matrix(0,-1,-1,0,71.065,.6572571)" stroke-width="1" stroke-linecap="round" stroke-linejoin="round" fill="none" stroke="#000000" d="M -1.19551 1.59401 C -1.09587 .99626 0 .09961 .29886 0 C 0 -.09961 -1.09587 -.99626 -1.19551 -1.59401 "/>
<path transform="matrix(1,0,0,-1,71.065,71.065998)" stroke-width="1" stroke-linecap="butt" stroke-miterlimit="10" stroke-linejoin="miter" fill="none" stroke="#000000" d="M -56.69362 2.98883 L -56.69362 -2.98883 "/>
<symbol id="font_0_1">
<path d="M .57600006 0 C .59300008 0 .611 0 .611 .019999996 C .611 .040000008 .59300008 .040000008 .57600006 .040000008 L .035000005 .040000008 C .018 .040000008 0 .040000008 0 .019999996 C 0 0 .018 0 .035000005 0 L .57600006 0 Z "/>
</symbol>
<use xlink:href="#font_0_1" transform="matrix(9.9626,0,0,-9.9626,8.8338999,81.776599)"/>
<symbol id="font_1_1">
<path d="M .07700001 .07700001 L .18300002 .18 C .33900003 .31800003 .39900003 .372 .39900003 .47200004 C .39900003 .586 .30900003 .666 .18700002 .666 C .074 .666 0 .574 0 .485 C 0 .42900003 .05 .42900003 .053000008 .42900003 C .07000001 .42900003 .105000007 .441 .105000007 .48200003 C .105000007 .508 .08700001 .53400006 .052000006 .53400006 C .044000005 .53400006 .042000008 .53400006 .039 .53300008 C .062000004 .59800007 .11600001 .63500007 .17400001 .63500007 C .26500003 .63500007 .308 .554 .308 .47200004 C .308 .39200003 .25800003 .31300003 .20300003 .25100003 L .011000004 .037 C 0 .026 0 .024 0 0 L .37100003 0 L .39900003 .17400001 L .374 .17400001 C .36900003 .14400001 .36200003 .1 .352 .085 C .345 .07700001 .279 .07700001 .257 .07700001 L .07700001 .07700001 Z "/>
</symbol>
<use xlink:href="#font_1_1" transform="matrix(9.9626,0,0,-9.9626,16.254136,84.06799)"/>
<path transform="matrix(1,0,0,-1,71.065,71.065998)" stroke-width="1" stroke-linecap="butt" stroke-miterlimit="10" stroke-linejoin="miter" fill="none" stroke="#000000" d="M 56.69362 2.98883 L 56.69362 -2.98883 "/>
<use xlink:href="#font_1_1" transform="matrix(9.9626,0,0,-9.9626,125.766139,84.06799)"/>
<path transform="matrix(1,0,0,-1,71.065,71.065998)" stroke-width="1" stroke-linecap="butt" stroke-miterlimit="10" stroke-linejoin="miter" fill="none" stroke="#000000" d="M -2.98883 -56.69362 L 2.98883 -56.69362 "/>
<use xlink:href="#font_0_1" transform="matrix(9.9626,0,0,-9.9626,78.4749,128.26259)"/>
<use xlink:href="#font_1_1" transform="matrix(9.9626,0,0,-9.9626,85.894138,130.55399)"/>
<path transform="matrix(1,0,0,-1,71.065,71.065998)" stroke-width="1" stroke-linecap="butt" stroke-miterlimit="10" stroke-linejoin="miter" fill="none" stroke="#000000" d="M -2.98883 56.69362 L 2.98883 56.69362 "/>
<use xlink:href="#font_1_1" transform="matrix(9.9626,0,0,-9.9626,78.14613,17.582985)"/>
</svg>
