<?xml version="1.0" encoding="UTF-8" standalone="no"?>
<!DOCTYPE svg PUBLIC "-//W3C//DTD SVG 1.1//EN" "http://www.w3.org/Graphics/SVG/1.1/DTD/svg11.dtd">
<svg xmlns="http://www.w3.org/2000/svg" xmlns:xlink="http://www.w3.org/1999/xlink" version="1.1" width="114.183pt" height="57.49pt" viewBox="0 0 114.183 57.49">
<path transform="matrix(1,0,0,-1,57.091,28.745)" stroke-width="1" stroke-linecap="butt" stroke-miterlimit="10" stroke-linejoin="miter" fill="none" stroke="#000000" d="M 0 -28.3468 C -31.31142 -28.3468 -56.69362 -15.6557 -56.69362 0 "/>
<path transform="matrix(1,0,0,-1,57.091,28.745)" stroke-width="1" stroke-linecap="butt" stroke-miterlimit="10" stroke-linejoin="miter" fill="none" stroke="#000000" d="M 0 -28.3468 C 31.31142 -28.3468 56.69362 -15.6557 56.69362 0 "/>
<path transform="matrix(1,0,0,-1,57.091,28.745)" stroke-width="1" stroke-linecap="butt" stroke-miterlimit="10" stroke-linejoin="miter" fill="none" stroke="#000000" d="M 0 28.3468 C 31.31142 28.3468 56.69362 15.6557 56.69362 0 "/>
<path transform="matrix(1,0,0,-1,57.091,28.745)" stroke-width="1" stroke-linecap="butt" stroke-miterlimit="10" stroke-linejoin="miter" fill="none" stroke="#000000" d="M 0 28.3468 C -31.31142 28.3468 -56.69362 15.6557 -56.69362 0 "/>
<path transform="matrix(1,0,0,-1,57.091,28.745)" stroke-width="1" stroke-linecap="butt" stroke-miterlimit="10" stroke-linejoin="miter" fill="none" stroke="#000000" d="M 0 -2.83484 C -11.99463 -2.83484 -23.6101 -.48573 -32.798 3.79726 "/>
<path transform="matrix(1,0,0,-1,57.091,28.745)" stroke-width="1" stroke-linecap="butt" stroke-miterlimit="10" stroke-linejoin="miter" fill="none" stroke="#000000" d="M 0 -2.83484 C 11.99463 -2.83484 23.6101 -.48573 32.798 3.79726 "/>
<path transform="matrix(1,0,0,-1,57.091,28.745)" stroke-width="1" stroke-linecap="butt" stroke-miterlimit="10" stroke-linejoin="miter" fill="none" stroke="#000000" d="M 0 5.66927 C -9.56004 5.66927 -18.9317 4.17613 -27.03893 1.36205 "/>
<path transform="matrix(1,0,0,-1,57.091,28.745)" stroke-width="1" stroke-linecap="butt" stroke-miterlimit="10" stroke-linejoin="miter" fill="none" stroke="#000000" d="M 0 5.66927 C 9.56004 5.66927 18.9317 4.17613 27.03893 1.36205 "/>
</svg>
