<?xml version="1.0" encoding="UTF-8" standalone="no"?>
<!DOCTYPE svg PUBLIC "-//W3C//DTD SVG 1.1//EN" "http://www.w3.org/Graphics/SVG/1.1/DTD/svg11.dtd">
<svg xmlns="http://www.w3.org/2000/svg" xmlns:xlink="http://www.w3.org/1999/xlink" version="1.1" width="142.529pt" height="57.49pt" viewBox="0 0 142.529 57.49">
<path transform="matrix(1,0,0,-1,28.745,28.745)" d="M 28.3468 0 C 28.3468 15.6557 15.6557 28.3468 0 28.3468 C -15.6557 28.3468 -28.3468 15.6557 -28.3468 0 C -28.3468 -15.6557 -15.6557 -28.3468 0 -28.3468 C 15.6557 -28.3468 28.3468 -15.6557 28.3468 0 Z M 0 0 " fill="#929292"/>
<path transform="matrix(1,0,0,-1,28.745,28.745)" stroke-width="1" stroke-linecap="butt" stroke-miterlimit="10" stroke-linejoin="miter" fill="none" stroke="#000000" d="M 28.3468 0 C 28.3468 15.6557 15.6557 28.3468 0 28.3468 C -15.6557 28.3468 -28.3468 15.6557 -28.3468 0 C -28.3468 -15.6557 -15.6557 -28.3468 0 -28.3468 C 15.6557 -28.3468 28.3468 -15.6557 28.3468 0 Z M 0 0 "/>
<path transform="matrix(1,0,0,-1,28.745,28.745)" d="M 113.38724 0 C 113.38724 15.6557 100.69614 28.3468 85.04042 28.3468 C 69.3847 28.3468 56.69362 15.6557 56.69362 0 C 56.69362 -15.6557 69.3847 -28.3468 85.04042 -28.3468 C 100.69614 -28.3468 113.38724 -15.6557 113.38724 0 Z M 85.04042 0 " fill="#929292"/>
<path transform="matrix(1,0,0,-1,28.745,28.745)" stroke-width="1" stroke-linecap="butt" stroke-miterlimit="10" stroke-linejoin="miter" fill="none" stroke="#000000" d="M 113.38724 0 C 113.38724 15.6557 100.69614 28.3468 85.04042 28.3468 C 69.3847 28.3468 56.69362 15.6557 56.69362 0 C 56.69362 -15.6557 69.3847 -28.3468 85.04042 -28.3468 C 100.69614 -28.3468 113.38724 -15.6557 113.38724 0 Z M 85.04042 0 "/>
<path transform="matrix(1,0,0,-1,28.745,28.745)" stroke-width="1" stroke-linecap="butt" stroke-miterlimit="10" stroke-linejoin="miter" fill="none" stroke="#000000" d="M 28.3468 0 L 56.69362 0 "/>
</svg>
