<?xml version="1.0" encoding="UTF-8" standalone="no"?>
<!DOCTYPE svg PUBLIC "-//W3C//DTD SVG 1.1//EN" "http://www.w3.org/Graphics/SVG/1.1/DTD/svg11.dtd">
<svg xmlns="http://www.w3.org/2000/svg" xmlns:xlink="http://www.w3.org/1999/xlink" version="1.1" width="57.49pt" height="57.49pt" viewBox="0 0 57.49 57.49">
<path transform="matrix(1,0,0,-1,28.745,28.745)" d="M 28.3468 0 C 28.3468 15.6557 15.6557 28.3468 0 28.3468 C -15.6557 28.3468 -28.3468 15.6557 -28.3468 0 C -28.3468 -15.6557 -15.6557 -28.3468 0 -28.3468 C 15.6557 -28.3468 28.3468 -15.6557 28.3468 0 Z M 0 0 " fill="#929292"/>
<path transform="matrix(1,0,0,-1,28.745,28.745)" stroke-width="1" stroke-linecap="butt" stroke-dasharray="2.98883,2.98883" stroke-miterlimit="10" stroke-linejoin="miter" fill="none" stroke="#000000" d="M 28.3468 0 C 28.3468 15.6557 15.6557 28.3468 0 28.3468 C -15.6557 28.3468 -28.3468 15.6557 -28.3468 0 C -28.3468 -15.6557 -15.6557 -28.3468 0 -28.3468 C 15.6557 -28.3468 28.3468 -15.6557 28.3468 0 Z M 0 0 "/>
</svg>
